<svg preserveAspectRatio="none" width="100%" height="100%" overflow="visible" style="display: block;" viewBox="0 0 28 28" fill="none" xmlns="http://www.w3.org/2000/svg">
<g id="apple-logo-2 1">
<path id="path2" d="M23.4743 9.4838C22.6617 9.98132 21.9885 10.6769 21.5179 11.5054C21.0473 12.3339 20.7946 13.2683 20.7834 14.221C20.7867 15.2934 21.1044 16.3412 21.6972 17.2348C22.2901 18.1283 23.132 18.8283 24.1188 19.2481C23.7297 20.5034 23.1539 21.6929 22.4108 22.7767C21.3474 24.3075 20.2355 25.8381 18.5438 25.8381C16.852 25.8381 16.4169 24.8553 14.4672 24.8553C12.566 24.8553 11.8892 25.8704 10.3424 25.8704C8.79552 25.8704 7.71609 24.4524 6.47534 22.7123C4.83642 20.2746 3.93568 17.4157 3.88122 14.4788C3.88122 9.64495 7.02325 7.08312 10.1168 7.08312C11.7603 7.08312 13.1299 8.16255 14.1612 8.16255C15.144 8.16255 16.6748 7.01853 18.5438 7.01853C19.5047 6.99374 20.4571 7.20562 21.3169 7.63552C22.1767 8.06542 22.9176 8.70015 23.4743 9.4838ZM17.6576 4.97231C18.4815 4.00312 18.9479 2.78057 18.9789 1.5089C18.9803 1.34125 18.9641 1.17393 18.9305 1.00967C17.5153 1.14791 16.2066 1.82244 15.2729 2.89489C14.441 3.82546 13.9571 5.01535 13.9033 6.26235C13.9039 6.41401 13.9201 6.56519 13.9516 6.71353C14.0632 6.73462 14.1765 6.74543 14.29 6.74583C14.9423 6.69393 15.5771 6.50995 16.156 6.20506C16.735 5.90018 17.2458 5.48077 17.6576 4.97231Z" fill="var(--fill-0, #0F172A)"/>
</g>
</svg>
