<svg preserveAspectRatio="none" width="100%" height="100%" overflow="visible" style="display: block;" viewBox="0 0 20 20" fill="none" xmlns="http://www.w3.org/2000/svg">
<g id="apple-logo-2 1">
<path id="path2" d="M16.7674 6.77421C16.1869 7.12958 15.7061 7.62641 15.37 8.2182C15.0338 8.80999 14.8533 9.47739 14.8453 10.1579C14.8476 10.9239 15.0746 11.6724 15.498 12.3106C15.9215 12.9489 16.5229 13.4489 17.2277 13.7487C16.9498 14.6453 16.5385 15.495 16.0077 16.2692C15.2482 17.3626 14.454 18.4559 13.2456 18.4559C12.0372 18.4559 11.7264 17.7538 10.3338 17.7538C8.97569 17.7538 8.49228 18.4789 7.3874 18.4789C6.28252 18.4789 5.5115 17.4661 4.62525 16.2232C3.45459 14.4819 2.81121 12.4399 2.7723 10.342C2.7723 6.88932 5.01661 5.05944 7.22627 5.05944C8.40024 5.05944 9.37853 5.83046 10.1151 5.83046C10.8172 5.83046 11.9106 5.01331 13.2456 5.01331C13.932 4.9956 14.6122 5.14694 15.2263 5.45401C15.8405 5.76108 16.3697 6.21446 16.7674 6.77421ZM12.6126 3.55172C13.2011 2.85944 13.5342 1.98619 13.5564 1.07785C13.5573 0.958108 13.5458 0.838589 13.5218 0.721261C12.5109 0.820008 11.5762 1.30181 10.9092 2.06785C10.315 2.73254 9.96936 3.58246 9.93091 4.47318C9.93136 4.5815 9.94294 4.68949 9.96546 4.79545C10.0452 4.81051 10.1261 4.81824 10.2072 4.81852C10.673 4.78145 11.1265 4.65003 11.54 4.43226C11.9536 4.21449 12.3185 3.9149 12.6126 3.55172Z" fill="var(--fill-0, white)"/>
</g>
</svg>
