<svg preserveAspectRatio="none" width="100%" height="100%" overflow="visible" style="display: block;" viewBox="0 0 20 20" fill="none" xmlns="http://www.w3.org/2000/svg">
<g id="icons8-google-play 1">
<path id="Vector" d="M2.84999 0.799909L11.5125 9.39991L13.8875 7.02491L3.38749 0.962409C3.21249 0.860847 3.02499 0.804597 2.84999 0.799909ZM2.12499 1.19991C2.04687 1.33897 1.99999 1.50303 1.99999 1.68741V18.3999C1.99999 18.5343 2.02812 18.6546 2.07499 18.7624L10.9375 9.96241L2.12499 1.19991ZM14.6125 7.43741L12.075 9.96241L14.6125 12.4749L17.7125 10.6999C18.1531 10.4452 18.2156 10.1218 18.2125 9.94991C18.2078 9.66553 18.0281 9.39991 17.725 9.23741C17.4609 9.09522 15.5 7.95303 14.6125 7.43741ZM11.5125 10.5249L2.77499 19.1874C2.9203 19.1796 3.07812 19.1483 3.22499 19.0624C3.56718 18.864 10.4875 14.8624 10.4875 14.8624L13.9 12.8999L11.5125 10.5249Z" fill="var(--fill-0, white)"/>
</g>
</svg>
