<svg preserveAspectRatio="none" width="100%" height="100%" overflow="visible" style="display: block;" viewBox="0 0 30 36" fill="none" xmlns="http://www.w3.org/2000/svg">
<g id="Icon">
<path id="Vector" d="M10.75 4.875L8.375 8.875L3.875 9.875L4.3125 14.5L1.25 18L4.3125 21.5L3.875 26.125L8.375 27.125L10.75 31.125L15 29.3125L19.25 31.125L21.625 27.125L26.125 26.125L25.6875 21.5L28.75 18L25.6875 14.5L26.125 9.875L21.625 8.875L19.25 4.875L15 6.6875L10.75 4.875ZM11.8125 8.0625L15 9.4375L18.25 8.0625L20 11.0625L23.4375 11.875L23.125 15.375L25.4375 18L23.125 20.6875L23.4375 24.1875L20 24.9375L18.1875 27.9375L15 26.5625L11.75 27.9375L10 24.9375L6.5625 24.1875L6.875 20.6875L4.5625 18L6.875 15.375L6.5625 11.8125L10 11.0625L11.8125 8.0625ZM13.6875 13.5625L20.75 20.625L19 22.4375L13.6875 17.125L11 19.75L9.25 18L13.6875 13.5625Z" fill="var(--fill-0, #0F172A)"/>
</g>
</svg>
