<svg preserveAspectRatio="none" width="100%" height="100%" overflow="visible" style="display: block;" viewBox="0 0 30 36" fill="none" xmlns="http://www.w3.org/2000/svg">
<g id="Icon">
<path id="Vector" d="M8.75 5.5V16.9375C7.6875 17.2292 6.79688 17.8125 6.07812 18.6875C5.35938 19.5625 5 20.5833 5 21.75V30.5H7.5V21.75H8.75V30.5H11.25V21.75H12.5V30.5H15V21.75C15 20.5833 14.6406 19.5625 13.9219 18.6875C13.2031 17.8125 12.3125 17.2292 11.25 16.9375V5.5H8.75ZM21.25 5.5V15.5H17.5V24.25C17.5 25.9792 18.1094 27.4531 19.3281 28.6719C20.5469 29.8906 22.0208 30.5 23.75 30.5V5.5H21.25Z" fill="var(--fill-0, #0F172A)"/>
</g>
</svg>
