<svg preserveAspectRatio="none" width="100%" height="100%" overflow="visible" style="display: block;" viewBox="0 0 30 36" fill="none" xmlns="http://www.w3.org/2000/svg">
<g id="Icon">
<path id="Vector" d="M18.75 6.75L11.25 9.375L5.4375 7.125C5.02083 6.95833 4.63542 7.00521 4.28125 7.26562C3.92708 7.52604 3.75 7.875 3.75 8.3125V25.8125C3.75 26.0833 3.82812 26.3229 3.98438 26.5312C4.14062 26.7396 4.35417 26.8958 4.625 27L11.25 29.25L18.75 26.625L24.5625 28.875C24.9792 29.0417 25.3646 28.9948 25.7188 28.7344C26.0729 28.474 26.25 28.125 26.25 27.6875V10.1875C26.25 9.91667 26.1719 9.67708 26.0156 9.46875C25.8594 9.26042 25.6458 9.10417 25.375 9L18.75 6.75ZM17.5 9.8125V24.4375L12.5 26.1875V11.5625L17.5 9.8125ZM20 9.8125L23.75 11.0625V25.875L20 24.4375V9.8125ZM6.25 10.125L10 11.5625V26.1875L6.25 24.9375V10.125Z" fill="var(--fill-0, #0F172A)"/>
</g>
</svg>
