<svg preserveAspectRatio="none" width="100%" height="100%" overflow="visible" style="display: block;" viewBox="0 0 48 48" fill="none" xmlns="http://www.w3.org/2000/svg">
<g id="pets">
<mask id="mask0_3_2298" style="mask-type:alpha" maskUnits="userSpaceOnUse" x="0" y="0" width="48" height="48">
<rect id="Bounding box" width="48" height="48" fill="var(--fill-0, #D9D9D9)"/>
</mask>
<g mask="url(#mask0_3_2298)">
<path id="pets_2" d="M11.1298 24.3922C9.92859 24.3922 8.91328 23.9775 8.08387 23.1481C7.25446 22.3186 6.83975 21.3033 6.83975 20.1021C6.83975 18.9009 7.25446 17.8856 8.08387 17.0562C8.91328 16.2268 9.92859 15.8121 11.1298 15.8121C12.331 15.8121 13.3463 16.2268 14.1757 17.0562C15.0052 17.8856 15.4199 18.9009 15.4199 20.1021C15.4199 21.3033 15.0052 22.3186 14.1757 23.1481C13.3463 23.9775 12.331 24.3922 11.1298 24.3922ZM18.8519 17.5281C17.6507 17.5281 16.6354 17.1134 15.806 16.284C14.9766 15.4546 14.5618 14.4393 14.5618 13.238C14.5618 12.0368 14.9766 11.0215 15.806 10.1921C16.6354 9.36269 17.6507 8.94798 18.8519 8.94798C20.0531 8.94798 21.0684 9.36269 21.8978 10.1921C22.7272 11.0215 23.142 12.0368 23.142 13.238C23.142 14.4393 22.7272 15.4546 21.8978 16.284C21.0684 17.1134 20.0531 17.5281 18.8519 17.5281ZM29.148 17.5281C27.9468 17.5281 26.9315 17.1134 26.1021 16.284C25.2727 15.4546 24.858 14.4393 24.858 13.238C24.858 12.0368 25.2727 11.0215 26.1021 10.1921C26.9315 9.36269 27.9468 8.94798 29.148 8.94798C30.3492 8.94798 31.3646 9.36269 32.194 10.1921C33.0234 11.0215 33.4381 12.0368 33.4381 13.238C33.4381 14.4393 33.0234 15.4546 32.194 16.284C31.3646 17.1134 30.3492 17.5281 29.148 17.5281ZM36.8701 24.3922C35.6689 24.3922 34.6536 23.9775 33.8242 23.1481C32.9948 22.3186 32.5801 21.3033 32.5801 20.1021C32.5801 18.9009 32.9948 17.8856 33.8242 17.0562C34.6536 16.2268 35.6689 15.8121 36.8701 15.8121C38.0713 15.8121 39.0866 16.2268 39.9161 17.0562C40.7455 17.8856 41.1602 18.9009 41.1602 20.1021C41.1602 21.3033 40.7455 22.3186 39.9161 23.1481C39.0866 23.9775 38.0713 24.3922 36.8701 24.3922ZM14.8193 41.5524C13.5322 41.5524 12.4526 41.059 11.5803 40.0723C10.708 39.0856 10.2718 37.9201 10.2718 36.5759C10.2718 35.0887 10.7795 33.7874 11.7948 32.672C12.8101 31.5566 13.8182 30.4554 14.8193 29.3686C15.6487 28.482 16.3637 27.5168 16.9643 26.4728C17.5649 25.4289 18.2799 24.4494 19.1093 23.5342C19.7385 22.7906 20.4678 22.1756 21.2972 21.6894C22.1266 21.2032 23.0276 20.9601 24 20.9601C24.9724 20.9601 25.8733 21.1889 26.7027 21.6465C27.5321 22.1041 28.2614 22.7048 28.8906 23.4484C29.6914 24.3636 30.3993 25.3503 31.0142 26.4085C31.6291 27.4667 32.3513 28.4534 33.1807 29.3686C34.1817 30.4554 35.1899 31.5566 36.2052 32.672C37.2205 33.7874 37.7281 35.0887 37.7281 36.5759C37.7281 37.9201 37.292 39.0856 36.4197 40.0723C35.5474 41.059 34.4677 41.5524 33.1807 41.5524C31.6363 41.5524 30.1061 41.4237 28.5903 41.1663C27.0745 40.9089 25.5444 40.7802 24 40.7802C22.4555 40.7802 20.9254 40.9089 19.4096 41.1663C17.8938 41.4237 16.3637 41.5524 14.8193 41.5524Z" fill="var(--fill-0, #FF9F41)"/>
</g>
</g>
</svg>
