<svg preserveAspectRatio="none" width="100%" height="100%" overflow="visible" style="display: block;" viewBox="0 0 68.1334 44.8002" fill="none" xmlns="http://www.w3.org/2000/svg">
<g id="Group">
<path id="Vector" d="M13.9717 17.3998V32.977L9.78808 32.9819V25.2465H4.1861L4.18364 32.9819H0L0.00246241 17.4023H4.18364L4.1861 24.9624H9.78808V17.4048L13.9717 17.3998Z" fill="var(--fill-0, white)"/>
<path id="Vector_2" d="M58.9941 19.5738C57.4772 18.2149 55.5541 17.4169 53.4955 17.4144L46.7928 17.4046V32.9792L53.5669 32.9619C57.7087 32.9496 61.6091 29.4957 61.5008 25.0486C61.4466 22.8967 60.5331 21.0018 58.9941 19.5738ZM56.7803 28.8286C56.6301 29.6316 56.4011 30.3678 56.0096 31.0695C55.4654 32.0503 54.5322 32.6902 53.3921 32.6926L50.974 32.6976V17.6862H53.3798C55.2241 17.6912 56.15 19.3662 56.5784 20.9425C57.1817 23.1734 57.2039 26.5606 56.7803 28.8286Z" fill="var(--fill-0, white)"/>
<path id="Vector_3" d="M23.019 17.0812C18.5325 17.0812 14.8955 20.7303 14.8955 25.2317C14.8955 29.7331 18.5325 33.3822 23.019 33.3822C27.5055 33.3822 31.1425 29.7331 31.1425 25.2317C31.1425 20.7303 27.5055 17.0812 23.019 17.0812ZM26.619 28.1569C26.4245 29.6121 25.9074 31.6479 24.5555 32.4706C23.6272 33.0363 22.4477 33.024 21.5341 32.4977C19.5199 31.3366 19.2786 27.559 19.2392 25.4961C19.1973 23.4059 19.382 20.6537 20.564 18.8897C21.4677 17.5432 23.2849 17.1306 24.6195 18.0818C27.0253 19.7964 26.9687 25.5306 26.619 28.1569Z" fill="var(--fill-0, white)"/>
<path id="Vector_4" d="M45.2977 17.4441V33.4239L32.3553 19.6355L32.3504 32.91C32.3504 32.9817 32.1435 32.9866 32.0721 32.9446V17.4045L36.4995 17.3971L45.0096 26.7854L45.0195 17.4391C45.1032 17.4095 45.182 17.4095 45.2977 17.4441Z" fill="var(--fill-0, white)"/>
<path id="Vector_5" d="M32.0549 6.20544C31.6117 5.45685 31.0478 4.80955 30.4002 4.21661C28.9769 2.90472 29.0508 1.92636 27.8762 1.7213C26.3643 1.45447 25.9678 0.488469 23.3675 0.135173C21.6266 -0.102005 20.654 -0.0921227 19.0362 0.703411C18.7431 0.846706 18.4624 1.05424 18.1792 1.21977C17.9552 1.05177 17.7705 0.901059 17.5169 0.866471L18.0487 1.2593C16.3152 1.49647 17.3519 2.87754 16.3078 2.8306C15.5149 2.79601 14.7245 2.82072 13.9168 2.84048C12.9417 2.86272 12.2916 2.57613 11.5701 3.7299C11.3781 4.03625 11.6588 4.2932 11.6662 4.55508C11.676 4.85896 11.6391 5.10108 11.7573 5.39014C11.9223 5.79038 11.5923 6.8478 12.4492 8.53769C12.5649 8.76746 12.7595 8.9824 12.9614 9.1331L14.0128 9.92123C14.3009 10.1386 14.6161 10.4722 14.9978 10.5018C15.7094 10.5586 16.33 10.7415 16.9874 11.0058C17.3863 11.1664 17.672 11.3888 17.7114 11.8829C17.8123 13.1627 17.5612 15.0378 16.655 16.031C15.6085 17.1774 15.0495 18.2224 15.3425 19.8432C15.4928 19.0476 15.5962 18.3015 15.9655 17.5974C16.6722 16.2608 17.4011 16.1867 17.8345 14.4968C17.9872 15.3096 18.1595 16.0656 18.5166 16.7796C18.226 15.4949 18.0857 14.2448 18.0857 12.9279C18.0857 12.4412 18.0389 11.9718 17.9133 11.5246C17.832 11.2306 17.6474 11.0528 17.3814 10.9465L16.5885 10.6278C16.2364 10.487 15.8375 10.3462 15.4657 10.277C15.0224 10.1955 14.6358 10.1411 14.2714 9.84217L13.1682 8.93546C12.5945 8.46604 12.5576 7.07015 13.0254 7.42839C13.7001 7.94721 14.4709 8.49816 15.2293 8.92063C17.2361 10.0349 17.9601 8.96016 18.8441 9.58275C18.9721 9.67417 19.11 9.7804 19.2701 9.76064C19.147 9.35793 18.7801 9.20228 18.4033 9.15287C17.3642 9.01699 16.8249 9.57781 15.1554 8.55004L14.1655 7.94227C13.8183 7.7298 13.4884 7.53462 13.1682 7.28262C12.5625 6.80086 12.7964 6.51674 12.5428 5.97073L12.5773 6.88239C12.5871 7.18627 12.5403 7.49757 12.4394 7.81874C12.1488 7.22086 12.139 6.61803 12.102 5.98556L12.0725 5.50132C12.3015 5.68167 12.56 5.82497 12.8161 5.70144C13.0525 5.58532 13.247 5.40744 13.3677 5.18014C12.8777 5.38767 12.8481 5.7212 12.203 5.47908C12.0011 5.40497 11.8582 5.23944 11.8755 5.05167L12.2005 5.01461L12.4049 5.38026C12.4418 4.74037 12.1242 4.08566 12.3532 3.54707C12.395 4.17461 12.4344 4.70826 12.5896 5.3185L12.7521 4.79967C12.8604 4.87379 13.0451 5.01461 13.151 5.0072C14.003 4.95779 14.8501 4.09308 14.4019 3.80402C14.3674 3.78178 14.2295 3.74472 14.2172 3.78178L14.1507 3.95966C14.1089 4.07578 14.0104 4.19437 13.8873 4.19684C13.7863 4.19684 13.6607 4.02884 13.6656 3.92013C13.6927 3.20366 13.0205 3.2926 12.7718 3.09989C13.2717 3.0406 13.7371 3.16907 14.1778 3.23084C14.2542 3.1839 14.4191 3.09495 14.4979 3.09495L15.9261 3.10978C16.3275 3.11225 16.7535 3.14931 17.1081 2.95907C17.4356 2.78613 17.7188 2.57119 17.9207 2.21789L17.1352 2.66013C17.0071 2.24507 17.2632 1.85471 17.6695 1.73118C18.4895 1.48165 18.5683 1.13577 19.3711 0.844235C19.2455 1.27412 18.9377 1.49894 18.982 1.92883C19.2233 1.22471 19.6986 0.725646 20.4102 0.505763C22.1733 -0.04024 24.5938 0.515645 26.1821 1.38036C26.7435 1.68424 27.2902 1.91648 27.8984 2.09189C28.3244 2.21542 28.5977 2.52919 28.8242 2.89483C29.201 3.5026 29.6319 4.03378 30.1244 4.55014L31.0798 5.54579C31.395 5.87438 31.6831 6.19556 31.8604 6.63038C31.624 6.89474 31.3827 7.0998 31.1906 7.35427C30.9444 7.68039 30.7868 8.05839 30.5602 8.39687C29.792 9.54817 28.4943 10.0028 27.2926 11.0602C27.0341 11.285 26.6056 11.4332 26.2929 11.2554C24.8401 10.4351 25.0789 7.68533 25.3892 6.31168C25.7216 4.85402 25.2119 4.70332 25.1651 3.13942C25.1577 2.95413 25.2168 2.64283 25.1282 2.49954L24.1383 0.943059C24.1851 1.2173 24.2762 1.50636 24.4239 1.73612L24.9853 2.61566C24.9509 3.30495 24.9804 3.96213 25.1651 4.6292C25.5936 6.18321 24.5273 7.07509 24.9656 9.62228C25.0863 10.3165 25.3695 10.9342 25.894 11.3937C26.3421 11.7865 26.8986 11.7643 27.3665 11.4011C27.8935 10.9935 28.3909 10.5932 28.9892 10.2301C29.1394 11.4654 29.201 12.6043 29.2059 13.81C29.2084 14.6277 29.3586 15.3862 29.7156 16.1249C30.2303 17.1897 30.4125 18.2892 30.383 19.4997C30.7105 18.6968 30.7351 17.8543 30.5258 17.0514C30.1638 15.6678 29.6048 15.4109 29.5753 13.7432L29.5433 11.7964L29.3758 10.0299C29.9545 9.60746 30.5479 9.24428 30.8976 8.63157C31.1734 8.14733 31.3827 7.6631 31.8358 7.29992C32.1682 7.03309 32.2839 6.5958 32.0549 6.20544ZM11.9444 4.76261C11.7499 4.56002 11.7351 4.19684 11.7893 3.87566C12.1094 4.01402 12.1488 4.42661 11.9444 4.76261ZM12.4369 3.17154C12.464 3.16413 12.5329 3.16907 12.6733 3.1839L12.4369 3.17154ZM13.0821 3.81637C13.2914 3.89543 13.2544 4.40931 13.3849 4.4859C13.4588 4.53284 13.5721 4.54026 13.8405 4.58967C13.5278 4.84414 12.9368 4.78237 12.7028 4.37225C12.6462 4.2759 12.6708 4.03378 12.7152 3.93743C12.7595 3.84849 12.954 3.76943 13.0821 3.81637Z" fill="var(--fill-0, white)"/>
<path id="Vector_6" d="M50.8167 37.6043C50.7404 36.5815 50.0263 35.7884 49.0118 35.5858C48.47 35.4771 47.9061 35.5339 47.357 35.6253C47.0246 35.9144 47.1723 37.797 47.1846 38.3628L47.2364 41.3275C47.2487 41.9081 47.2437 44.3194 47.5589 44.6406C47.8126 44.9024 48.4552 44.8431 48.5858 44.4553C48.7335 44.0105 48.4429 42.0538 48.5488 41.3942C49.9155 40.6135 50.9349 39.2028 50.8167 37.6043ZM48.438 40.0749L48.2706 35.9885C49.5707 36.0453 49.7308 37.5647 49.6668 38.6222C49.4057 39.2497 49.1078 39.8006 48.6473 40.2775C48.5981 40.3318 48.4405 40.1589 48.438 40.0749Z" fill="var(--fill-0, white)"/>
<path id="Vector_7" d="M60.1292 42.1354C60.1415 42.2021 60.0701 42.3627 60.011 42.3998C59.4693 42.7432 58.9153 43.0298 58.3514 43.3337C58.1421 43.4473 57.9475 43.5955 57.7062 43.6351C57.4945 43.6697 57.3245 43.5288 57.2433 43.3411C56.3125 41.1892 55.3448 39.0991 54.3056 36.9966C54.0348 36.4481 53.8304 35.9219 53.6482 35.3339C54.2909 34.7706 55.0665 34.5087 55.8791 34.2764C56.1401 34.2023 56.3839 34.1307 56.6498 34.2764C56.3741 35.0275 55.6944 34.7483 55.0296 35.3264L55.82 37.041C56.0564 37.5574 56.3297 38.0021 56.6351 38.5086C57.199 38.4345 57.62 37.9898 58.1987 38.2269C57.9549 38.8668 57.2654 38.7779 56.8912 39.1905L58.275 42.5184C58.7823 42.5851 59.0532 42.1008 59.8707 42.0094C59.9372 42.002 60.1194 42.0712 60.1292 42.1354Z" fill="var(--fill-0, white)"/>
<path id="Vector_8" d="M68.1333 37.2833C68.0964 37.5748 67.9659 37.7354 67.7689 37.9356C67.5694 38.1381 67.2961 38.2567 67.0597 38.0344L62.3171 33.57L61.4257 32.7596L60.7781 33.3847C60.6205 33.5354 60.3127 33.7306 60.1059 33.7405C59.8892 33.7504 59.9138 33.3748 60.0123 33.2488C60.5836 32.5076 61.1253 31.7912 61.7606 31.0994C62.0167 30.8202 63.307 29.6689 63.6517 29.8987C64.0531 30.1655 63.1445 30.8919 62.9943 31.0327L62.322 31.6578C62.5043 31.9221 62.6372 32.1272 62.8465 32.3199L65.1883 34.4866L68.1333 37.2833Z" fill="var(--fill-0, white)"/>
<path id="Vector_9" d="M20.9625 3.01593C21.0881 2.70464 21.1275 2.4724 21.0413 2.24758C20.9847 2.49711 20.9379 2.75158 20.7138 2.86276C20.6005 2.91711 20.3961 2.90723 20.3346 2.83558C20.1671 2.64534 20.2903 2.68487 20.2115 2.24758C20.1696 2.02522 20.4355 1.84487 20.6227 1.85228C21.1472 1.8671 21.2161 2.4724 21.615 2.79358C21.5436 2.21546 20.9674 1.48169 20.4257 1.62993C20.3173 1.65957 20.1671 1.79299 20.1031 1.92146L19.421 3.26794C20.0933 3.36923 20.2287 3.69535 21.0807 3.431L21.7579 3.22099C21.5535 2.96899 21.2752 3.00358 20.9625 3.01593ZM19.6796 3.09499L20.1204 2.32911C20.108 2.7417 20.076 2.93687 20.4355 3.23829L19.6796 3.09499ZM20.534 3.17158C20.5611 3.16417 20.6301 3.16911 20.7704 3.18394L20.534 3.17158Z" fill="var(--fill-0, white)"/>
<path id="Vector_10" d="M26.8973 4.32788L26.225 6.76389C26.2299 6.26236 26.3334 5.80529 26.4466 5.32106C26.7052 4.1994 26.944 2.41563 25.8409 1.68186L25.3558 1.36068C26.0723 1.33104 26.6436 1.83751 26.8849 2.51692C27.0869 3.09257 27.0647 3.72011 26.8973 4.32788Z" fill="var(--fill-0, white)"/>
<path id="Vector_11" d="M20.1524 9.72864C20.1819 10.1215 19.8938 10.4525 19.5392 10.6156C18.931 10.8948 18.2071 10.6872 17.7491 10.2104C17.5299 9.98311 17.3108 9.82993 17.0177 9.63475C17.8353 9.54828 18.1751 10.7416 19.3989 10.3759C19.5713 10.3241 19.7806 10.1783 19.8372 10.0424C20.049 9.54828 19.7067 9.18016 19.2216 8.8911C19.6648 8.8911 20.1154 9.2444 20.1524 9.72864Z" fill="var(--fill-0, white)"/>
<path id="Vector_12" d="M23.359 14.9391C22.6942 14.6031 22.1131 14.1979 21.6009 13.6395C21.5565 13.5951 20.2244 12.1127 20.5125 12.2165C20.5346 12.2239 20.6184 12.2535 20.643 12.2782L21.7757 13.3604L23.359 14.9391Z" fill="var(--fill-0, white)"/>
<path id="Vector_13" d="M19.5078 14.3487L19.1409 12.9775C19.0547 12.6563 18.8872 12.3599 18.7666 12.0041C19.3822 12.5872 19.7639 13.4568 19.5078 14.3487Z" fill="var(--fill-0, white)"/>
<path id="Vector_14" d="M29.9074 5.12589C29.8557 5.39766 29.7498 5.6126 29.634 5.82755C29.3853 6.29202 29.176 6.73179 28.947 7.23332C28.9372 6.70708 29.3041 5.37295 29.9074 5.12589Z" fill="var(--fill-0, white)"/>
<path id="Vector_15" d="M21.3644 1.2666C21.1058 1.2666 20.8571 1.27401 20.5813 1.3333C20.3203 1.3926 19.9682 1.23201 20.047 0.913301C20.0741 0.812006 20.3253 0.777418 20.4385 0.7873C20.5493 0.797183 20.6626 1.00718 20.7636 1.05413C20.9556 1.14307 21.1969 1.0986 21.3644 1.2666Z" fill="var(--fill-0, white)"/>
<path id="Vector_16" d="M22.9892 10.571C22.445 10.907 21.3517 10.6526 20.7558 10.3413L22.9892 10.571Z" fill="var(--fill-0, white)"/>
<path id="Vector_17" d="M16.7289 7.13944C16.3817 7.22097 14.7171 6.64779 14.6482 6.31426L16.7289 7.13944Z" fill="var(--fill-0, white)"/>
<path id="Vector_18" d="M19.5272 2.38345C19.5346 2.92204 19.116 3.2704 18.6136 3.35193L19.5272 2.38345Z" fill="var(--fill-0, white)"/>
<path id="Vector_19" d="M16.0496 7.69044C15.4487 7.6015 14.843 7.30996 14.4982 6.75408C15.0868 7.15185 15.365 7.42114 16.0496 7.69044Z" fill="var(--fill-0, white)"/>
<path id="Vector_20" d="M16.4679 6.58349C16.2857 6.51431 16.1256 6.45749 15.9754 6.38831L14.9609 5.93125C14.9412 5.92137 14.8993 5.89172 14.8821 5.87937C14.8673 5.86454 14.892 5.81513 14.9117 5.81266C15.1554 5.76819 15.9459 6.27219 16.2118 6.39819C16.3423 6.45996 16.4285 6.46243 16.4679 6.58349Z" fill="var(--fill-0, white)"/>
<path id="Vector_21" d="M16.3853 5.91407C15.9864 5.79301 15.7008 5.63983 15.3881 5.46442C15.782 5.49159 16.144 5.61512 16.3853 5.91407Z" fill="var(--fill-0, white)"/>
<path id="Vector_22" d="M21.4569 8.58227C21.6635 8.57981 21.8505 8.76491 21.9095 8.96483C21.9981 9.2758 21.479 8.78219 21.4569 8.58227Z" fill="var(--fill-0, white)"/>
<path id="Vector_23" d="M20.7442 2.27714C20.7589 2.32403 20.663 2.4425 20.6064 2.44743C20.5449 2.45484 20.4121 2.42522 20.3801 2.39067C20.3481 2.35612 20.4391 2.22531 20.4785 2.19816C20.5129 2.17841 20.6212 2.15126 20.6581 2.1636C20.695 2.17348 20.7319 2.24012 20.7442 2.27714Z" fill="var(--fill-0, white)"/>
<path id="Vector_24" d="M12.6739 3.18153L12.4346 3.16915C12.4617 3.1642 12.5308 3.16915 12.6739 3.18153Z" fill="var(--fill-0, white)"/>
<path id="Vector_25" d="M20.7707 3.18153L20.5313 3.16915C20.5585 3.1642 20.6275 3.16915 20.7707 3.18153Z" fill="var(--fill-0, white)"/>
</g>
</svg>
